<svg xmlns="http://www.w3.org/2000/svg" viewBox="0 0 302 302" fill="currentColor"><path d="M179.491 5.87358C177.661 20.2312 176.047 36.9274 174.648 55.9622C173.249 74.9969 172.173 94.9018 171.42 115.677C170.774 136.343 170.451 156.411 170.451 175.881C170.451 189.586 170.72 203.889 171.258 218.791C171.904 233.584 172.711 247.452 173.68 260.395C174.648 273.339 175.724 283.727 176.908 291.558C173.464 292.863 168.622 294.549 162.38 296.616C156.246 298.683 151.296 300.477 147.529 302C146.346 301.347 145.323 300.64 144.462 299.879C143.602 299.118 142.633 298.139 141.557 296.942C143.494 284.434 145.162 269.804 146.561 253.053C148.068 236.303 149.197 218.519 149.951 199.702C150.812 180.885 151.242 162.067 151.242 143.25C151.242 128.349 150.919 112.903 150.274 96.9141C149.736 80.9249 148.928 65.5339 147.852 50.7412C146.776 35.8397 145.539 22.6242 144.14 11.0945C149.305 8.81037 154.793 6.68936 160.605 4.7315C166.416 2.77364 171.204 1.19647 174.971 0C175.724 0.65262 176.585 1.63155 177.554 2.93679C178.63 4.24203 179.275 5.22096 179.491 5.87358ZM241.96 69.1777C244.866 75.3776 247.072 82.8828 248.579 91.6931C250.193 100.504 251 108.77 251 116.493C251 128.566 249.171 141.238 245.512 154.508C241.853 167.669 236.257 179.96 228.724 191.381C221.299 202.802 211.829 212.102 200.314 219.28C188.799 226.35 175.24 229.885 159.636 229.885C143.063 229.885 129.289 227.656 118.312 223.196C107.336 218.737 98.619 212.754 92.1622 205.249C85.813 197.744 81.2932 189.369 78.6029 180.123C76.0202 170.878 74.7288 161.415 74.7288 151.734C74.7288 144.338 75.1055 136.452 75.8588 128.077C76.6121 119.701 76.9887 111.598 76.9887 103.767C76.9887 98.6544 75.3745 94.5212 72.1461 91.3668C68.9177 88.1037 61.869 86.0915 51 85.3301V77.1723C60.7928 76.0846 69.671 74.6162 77.6344 72.7672C85.5978 70.9181 92.0008 68.797 96.8434 66.4041C99.4262 67.4918 101.632 69.6128 103.462 72.7672C105.399 75.9215 106.367 82.1214 106.367 91.3668C106.367 99.6333 105.937 108.552 105.076 118.124C104.323 127.696 103.946 136.452 103.946 144.392C103.946 156.792 105.775 167.995 109.434 178.002C113.093 187.9 119.388 195.786 128.32 201.66C137.36 207.424 149.951 210.307 166.093 210.307C178.146 210.307 188.423 206.826 196.924 199.865C205.533 192.904 212.098 183.658 216.617 172.129C221.245 160.599 223.559 148.145 223.559 134.766C223.559 125.412 221.998 115.84 218.877 106.051C215.757 96.1527 211.183 88.7563 205.157 83.8617C209.031 81.1424 213.873 78.0425 219.684 74.5619C225.603 71.0812 230.553 68.2532 234.535 66.0778C235.934 66.7304 237.118 67.2743 238.086 67.7093C239.162 68.1444 240.454 68.6339 241.96 69.1777Z"/></svg>
